<?xml version="1.0" standalone="no"?>
<!DOCTYPE svg PUBLIC "-//W3C//DTD SVG 20010904//EN"
 "http://www.w3.org/TR/2001/REC-SVG-20010904/DTD/svg10.dtd">
<svg version="1.0" xmlns="http://www.w3.org/2000/svg"
 width="500.000000pt" height="500.000000pt" viewBox="0 0 500.000000 500.000000"
 preserveAspectRatio="xMidYMid meet">

<g transform="translate(0.000000,500.000000) scale(0.100000,-0.100000)"
fill="#000000" stroke="none">
<path d="M1515 3488 c-11 -7 -42 -15 -69 -19 -52 -9 -86 -32 -86 -59 0 -14
-10 -16 -83 -12 -134 7 -238 -32 -339 -126 -46 -42 -148 -183 -182 -250 -28
-55 -39 -136 -25 -196 10 -47 9 -59 -9 -107 -41 -111 -57 -216 -56 -379 0
-140 3 -162 27 -235 30 -91 85 -170 137 -196 36 -19 352 -89 398 -89 15 0 187
38 382 85 l355 85 -243 -6 -242 -6 26 40 c31 47 -1 38 352 103 127 24 232 47
232 51 0 4 -123 7 -274 8 l-274 0 -31 -52 c-61 -108 -163 -187 -240 -188 -49
0 -116 43 -145 93 -46 79 -61 151 -60 287 2 153 31 279 96 402 66 127 185 235
229 207 20 -12 57 -11 61 2 11 34 118 -64 139 -128 l11 -33 236 1 237 1 -212
47 c-117 25 -217 51 -222 56 -5 6 -12 21 -16 34 l-7 24 183 -7 c101 -3 234 -8
294 -11 l110 -5 -320 70 c-176 38 -330 72 -342 75 -13 3 -23 12 -23 20 0 8
-20 26 -45 41 -25 14 -44 28 -43 30 2 2 40 21 85 44 89 44 160 107 188 166 16
33 16 41 4 63 -33 58 -144 98 -194 69z m68 -15 c-7 -2 -21 -2 -30 0 -10 3 -4
5 12 5 17 0 24 -2 18 -5z m-101 -36 c-33 -35 -26 -39 16 -11 32 23 44 25 92
20 38 -4 50 -3 40 4 -8 5 -11 10 -7 10 13 0 67 -40 67 -50 0 -11 -38 -48 -65
-62 -17 -9 -18 -9 -9 3 35 46 11 89 -51 89 -43 0 -65 -34 -49 -78 8 -23 15
-27 47 -27 l37 0 -37 -32 c-57 -48 -32 -39 47 17 39 28 72 50 75 50 3 0 1 -9
-5 -20 -6 -11 -16 -20 -23 -20 -20 0 -137 -94 -126 -101 12 -7 -69 -46 -152
-74 -63 -20 -63 -12 5 -92 16 -19 30 -46 31 -61 1 -15 5 -35 9 -44 12 -26 -10
-22 -28 4 -9 12 -16 33 -16 45 0 12 -9 27 -20 33 -21 11 -80 86 -80 102 0 4
25 19 55 33 64 28 71 38 18 23 -65 -18 -93 -36 -93 -62 0 -22 -7 -26 -72 -42
-40 -9 -120 -20 -178 -23 -85 -6 -98 -8 -65 -14 22 -4 64 -11 93 -17 43 -7
108 -33 174 -68 3 -2 4 5 2 16 -3 10 2 24 11 32 26 22 30 2 7 -44 -12 -24 -22
-55 -22 -68 0 -26 -22 -53 -33 -41 -4 3 -7 21 -7 40 0 25 4 33 18 33 9 0 -12
14 -48 32 -59 29 -73 32 -160 32 -60 0 -104 -5 -119 -13 -19 -10 -25 -10 -31
-1 -20 33 -47 -91 -36 -165 10 -65 59 -115 114 -115 38 0 72 19 72 40 0 18
-33 40 -60 40 -32 0 -47 -25 -28 -48 11 -12 10 -14 -1 -11 -26 9 -32 48 -11
69 27 27 66 25 95 -5 29 -28 31 -42 10 -72 -42 -60 -175 -20 -220 68 -22 42
-19 154 5 207 34 75 132 212 189 264 99 91 204 126 340 113 70 -7 79 -10 119
-47 24 -22 46 -37 49 -34 3 3 -6 15 -20 26 -14 11 -35 36 -48 56 -27 44 -17
57 51 72 25 5 47 10 49 11 3 1 -5 -9 -17 -22z m101 -24 c-7 -2 -21 -2 -30 0
-10 3 -4 5 12 5 17 0 24 -2 18 -5z m-10 -60 c-7 -2 -19 -2 -25 0 -7 3 -2 5 12
5 14 0 19 -2 13 -5z m22 -93 c-3 -5 -16 -15 -28 -21 -19 -9 -19 -8 3 10 28 23
34 26 25 11z m-607 -277 c-18 -42 -82 -143 -90 -143 -5 0 -23 -14 -39 -31 -16
-17 -29 -28 -29 -25 0 22 82 157 116 190 16 16 49 22 42 9z m112 -22 c0 -5
-16 -35 -35 -66 -19 -32 -37 -67 -41 -77 -7 -22 -17 -23 -35 -2 -15 18 2 57
53 118 27 33 58 48 58 27z m17 -174 c-96 -197 -141 -461 -114 -662 l6 -50 -15
34 c-73 162 -13 543 112 714 20 27 38 46 41 43 3 -3 -10 -39 -30 -79z m-272
-116 c-17 -58 -36 -142 -46 -212 -14 -101 -7 -334 14 -409 9 -30 14 -57 12
-58 -7 -7 -55 99 -69 150 -38 149 -23 393 34 543 8 22 12 24 35 13 16 -7 24
-17 20 -27z m99 -76 c-48 -179 -57 -431 -20 -565 8 -30 13 -56 11 -58 -2 -2
-15 19 -29 47 -71 140 -79 375 -19 593 13 49 19 57 42 61 14 2 29 5 32 6 3 0
-4 -37 -17 -84z"/>
<path d="M1650 3400 c0 -5 5 -10 10 -10 6 0 10 5 10 10 0 6 -4 10 -10 10 -5 0
-10 -4 -10 -10z"/>
<path d="M1395 2819 c-16 -5 -41 -18 -55 -29 l-25 -20 110 0 110 0 -25 24
c-29 28 -73 38 -115 25z"/>
<path d="M3646 2684 c-9 -8 -16 -26 -16 -40 0 -20 5 -24 29 -24 16 0 31 6 33
12 4 10 10 10 32 0 39 -17 69 -15 94 8 33 31 29 60 -7 60 -17 0 -33 -5 -36
-10 -4 -7 -12 -7 -25 0 -28 15 -87 12 -104 -6z"/>
<path d="M4090 2601 c-87 -28 -122 -71 -122 -147 0 -57 27 -102 77 -128 57
-30 204 -30 255 0 106 62 106 196 1 258 -37 21 -166 32 -211 17z m120 -126
c25 -31 -9 -63 -55 -51 -18 5 -25 13 -25 30 0 36 56 50 80 21z"/>
<path d="M1577 2593 c-6 -10 -87 -268 -87 -277 0 -3 40 -6 89 -6 81 0 90 2 96
20 4 13 15 20 30 20 15 0 26 -7 30 -20 6 -18 15 -20 102 -20 72 0 94 3 90 13
-2 6 -23 72 -46 145 l-42 132 -129 0 c-71 0 -131 -3 -133 -7z m141 -160 c8
-48 8 -53 -9 -53 -21 0 -24 22 -13 79 8 40 10 38 22 -26z"/>
<path d="M1940 2455 l0 -145 70 0 70 0 0 73 c1 80 10 75 29 -15 l12 -58 49 0
49 0 18 78 18 77 3 -77 3 -78 74 0 75 0 0 145 0 145 -99 0 c-110 0 -103 4
-117 -73 -8 -46 -16 -40 -29 21 l-10 47 -108 3 -107 3 0 -146z"/>
<path d="M2505 2588 c-12 -34 -85 -266 -85 -272 0 -3 40 -6 89 -6 81 0 90 2
96 20 4 13 15 20 30 20 15 0 26 -7 30 -20 6 -18 15 -20 102 -20 72 0 94 3 90
13 -2 6 -23 72 -46 145 l-42 132 -130 0 c-95 0 -131 -3 -134 -12z m143 -155
c9 -51 8 -53 -13 -53 -21 0 -22 3 -14 43 4 23 8 48 9 56 0 26 8 6 18 -46z"/>
<path d="M2870 2455 l0 -146 153 3 152 3 3 53 3 52 -75 0 -75 0 -3 88 -3 87
-77 3 -78 3 0 -146z"/>
<path d="M3190 2455 l0 -145 160 0 160 0 0 45 0 44 -82 3 c-54 2 -83 7 -86 16
-3 9 17 12 77 12 80 0 81 0 81 25 0 25 -1 25 -80 25 -47 0 -80 4 -80 10 0 6
35 10 86 10 l85 0 -3 48 -3 47 -157 3 -158 3 0 -146z"/>
<path d="M3607 2593 c-7 -12 -87 -264 -87 -274 0 -5 40 -9 89 -9 80 0 89 2 94
20 3 13 14 20 30 20 16 0 26 -7 30 -20 5 -18 14 -20 101 -20 l95 0 -13 43 c-7
23 -28 88 -46 145 l-33 102 -128 0 c-70 0 -130 -3 -132 -7z m142 -185 c1 -22
-4 -28 -20 -28 -15 0 -19 5 -16 18 3 9 9 35 13 57 l7 40 7 -30 c4 -16 8 -42 9
-57z"/>
<path d="M1187 2174 c-11 -11 31 -81 62 -103 40 -29 101 -28 150 3 42 27 93
85 85 98 -6 9 -288 11 -297 2z"/>
<path d="M4335 2153 c-52 -6 -75 -13 -75 -22 0 -14 83 -1 100 15 8 8 12 13 10
13 -3 -1 -18 -4 -35 -6z"/>
<path d="M3679 2137 c-13 -10 -2 -12 60 -9 42 2 80 8 86 13 14 14 -128 10
-146 -4z"/>
<path d="M3935 2140 c-4 -6 20 -10 65 -10 45 0 69 4 65 10 -3 6 -33 10 -65 10
-32 0 -62 -4 -65 -10z"/>
<path d="M4185 2010 c0 -118 2 -140 15 -140 12 0 15 17 13 98 -1 53 -2 116 -2
140 -1 26 -6 42 -13 42 -10 0 -13 -35 -13 -140z"/>
<path d="M4087 2060 c-9 -69 -9 -154 -1 -174 15 -40 24 -8 23 87 -1 122 -12
168 -22 87z"/>
<path d="M3631 2017 c-1 -63 20 -112 61 -137 39 -24 74 -25 108 -4 l25 15 -30
-6 c-37 -7 -88 7 -113 32 -19 17 -37 67 -46 123 -2 14 -4 3 -5 -23z"/>
<path d="M3993 2041 c-69 -9 -79 -21 -16 -21 33 0 55 5 63 15 7 8 11 14 9 14
-2 -1 -27 -5 -56 -8z"/>
<path d="M3891 1954 c0 -11 3 -14 6 -6 3 7 2 16 -1 19 -3 4 -6 -2 -5 -13z"/>
<path d="M3900 1923 c0 -20 49 -63 72 -63 13 1 34 7 48 15 24 14 23 14 -24 15
-37 0 -56 6 -73 22 -13 12 -23 17 -23 11z"/>
<path d="M3590 1611 c0 -11 6 -21 13 -24 20 -7 37 4 37 24 0 14 -7 19 -25 19
-18 0 -25 -5 -25 -19z"/>
<path d="M1570 1590 c0 -5 -10 -20 -22 -32 -19 -19 -20 -22 -5 -33 12 -9 17
-28 17 -67 0 -64 11 -78 62 -78 31 0 38 4 38 20 0 15 -7 20 -25 20 -23 0 -25
3 -25 49 0 44 3 50 22 53 34 5 37 38 4 38 -19 0 -26 5 -26 20 0 13 -7 20 -20
20 -11 0 -20 -4 -20 -10z"/>
<path d="M2580 1590 c0 -5 -10 -20 -22 -32 -19 -19 -20 -22 -5 -33 12 -9 17
-28 17 -67 0 -64 11 -78 62 -78 31 0 38 4 38 20 0 15 -7 20 -25 20 -23 0 -25
3 -25 49 0 44 3 50 22 53 34 5 37 38 4 38 -19 0 -26 5 -26 20 0 13 -7 20 -20
20 -11 0 -20 -4 -20 -10z"/>
<path d="M3463 1583 c-4 -10 -12 -22 -20 -26 -15 -9 -18 -37 -3 -37 6 0 10
-23 10 -51 0 -71 12 -89 60 -89 33 0 40 3 40 20 0 15 -7 20 -25 20 -23 0 -25
3 -25 50 0 47 2 50 25 50 18 0 25 5 25 20 0 15 -7 20 -25 20 -18 0 -25 5 -25
20 0 25 -28 27 -37 3z"/>
<path d="M1014 1563 c-38 -7 -59 -41 -59 -93 0 -67 24 -92 84 -88 38 2 47 7
49 24 3 18 -1 20 -32 16 -30 -4 -37 0 -47 22 -19 41 1 76 45 76 31 0 57 23 38
33 -14 8 -58 14 -78 10z"/>
<path d="M1174 1555 c-36 -15 -44 -31 -44 -89 0 -61 31 -88 96 -84 42 3 49 6
52 25 3 21 1 22 -27 12 -34 -12 -71 2 -71 26 0 11 13 15 55 15 54 0 55 1 55
29 0 58 -58 91 -116 66z m64 -47 c3 -14 -3 -18 -27 -18 -29 0 -41 17 -24 34
13 13 48 1 51 -16z"/>
<path d="M1406 1555 c-15 -8 -28 -10 -31 -4 -4 5 -15 9 -26 9 -17 0 -19 -8
-19 -90 0 -89 0 -90 25 -90 24 0 25 3 25 53 0 60 17 91 46 85 16 -3 19 -13 22
-71 3 -64 4 -67 27 -67 24 0 25 2 25 73 0 44 -5 80 -12 89 -19 22 -53 28 -82
13z"/>
<path d="M1775 1558 c-11 -6 -23 -16 -27 -22 -5 -7 -8 -4 -8 7 0 10 -8 17 -20
17 -19 0 -20 -7 -20 -90 0 -89 0 -90 25 -90 24 0 25 3 25 58 0 60 11 82 42 82
13 0 18 8 18 25 0 28 -6 30 -35 13z"/>
<path d="M1905 1563 c-40 -10 -65 -44 -65 -88 0 -62 29 -95 84 -95 58 0 86 30
86 91 0 34 -6 51 -22 66 -26 24 -54 32 -83 26z m50 -93 c0 -43 -1 -45 -30 -45
-27 0 -30 4 -33 33 -5 50 4 64 35 60 26 -3 28 -6 28 -48z"/>
<path d="M2180 1561 c-41 -11 -31 -36 15 -36 30 0 40 -4 43 -17 3 -14 -3 -18
-30 -18 -46 0 -78 -24 -78 -59 0 -15 5 -32 12 -39 15 -15 63 -16 89 -2 13 7
19 7 19 0 0 -5 9 -10 20 -10 18 0 20 7 20 73 0 82 -4 92 -43 106 -31 12 -31
12 -67 2z m58 -117 c-5 -25 -35 -41 -49 -27 -18 18 -3 43 26 43 19 0 26 -5 23
-16z"/>
<path d="M2755 1558 c-41 -10 -55 -33 -55 -88 0 -59 29 -90 84 -90 51 0 86 35
86 88 0 70 -49 108 -115 90z m61 -63 c3 -14 3 -37 0 -51 -5 -20 -12 -25 -34
-22 -23 2 -28 8 -30 36 -5 47 3 62 32 62 19 0 27 -7 32 -25z"/>
<path d="M2995 1562 c-11 -2 -26 -9 -32 -14 -9 -7 -13 -7 -13 1 0 6 -9 11 -20
11 -19 0 -20 -7 -20 -90 0 -89 0 -90 25 -90 24 0 25 3 25 59 0 63 17 95 45 85
11 -5 15 -24 15 -75 0 -67 1 -69 25 -69 23 0 25 3 25 51 0 59 13 89 39 89 24
0 31 -19 31 -86 0 -51 1 -54 25 -54 24 0 25 2 25 68 0 98 -35 137 -96 106 -15
-8 -31 -11 -38 -6 -17 14 -39 19 -61 14z"/>
<path d="M3295 1563 c-40 -10 -65 -44 -65 -88 0 -62 29 -95 84 -95 58 0 86 30
86 91 0 34 -6 51 -22 66 -26 24 -54 32 -83 26z m50 -93 c0 -43 -1 -45 -30 -45
-27 0 -30 4 -33 33 -5 50 4 64 35 60 26 -3 28 -6 28 -48z"/>
<path d="M3933 1563 c-40 -8 -66 -52 -60 -103 6 -53 34 -80 84 -80 48 0 70 14
83 55 17 52 -2 103 -46 121 -18 8 -35 13 -36 13 -2 -1 -13 -4 -25 -6z m57 -68
c14 -37 -3 -75 -35 -75 -28 0 -42 32 -31 75 5 18 13 25 31 25 18 0 28 -8 35
-25z"/>
<path d="M2340 1487 c0 -59 4 -77 18 -90 22 -20 72 -22 91 -4 11 10 14 10 18
0 3 -7 13 -13 24 -13 17 0 19 8 19 90 0 89 0 90 -25 90 -24 0 -25 -3 -25 -53
0 -60 -17 -91 -46 -85 -16 3 -19 13 -22 71 -3 64 -4 67 -27 67 -24 0 -25 -2
-25 -73z"/>
<path d="M3590 1470 c0 -89 0 -90 25 -90 25 0 25 1 25 90 0 89 0 90 -25 90
-25 0 -25 -1 -25 -90z"/>
<path d="M3670 1554 c0 -4 14 -45 32 -90 29 -77 34 -84 58 -84 28 0 27 -4 88
168 2 7 -5 12 -21 12 -23 0 -28 -7 -43 -55 -10 -30 -21 -55 -24 -55 -3 0 -14
25 -24 55 -14 47 -21 55 -42 55 -13 0 -24 -3 -24 -6z"/>
</g>
</svg>
